<svg xmlns="http://www.w3.org/2000/svg" width="512" height="512" viewBox="0 0 512 512" role="img" aria-labelledby="titleDesc">
  <title id="titleDesc">BlochVue Simulator Icon</title>
  <defs>
    <linearGradient id="g1" x1="0" x2="1" y1="0" y2="1">
      <stop offset="0" stop-color="#1e88e5"/>
      <stop offset="1" stop-color="#0fb9d1"/>
    </linearGradient>
    <filter id="s" x="-20%" y="-20%" width="140%" height="140%">
      <feDropShadow dx="0" dy="6" stdDeviation="10" flood-color="#000" flood-opacity="0.12"/>
    </filter>
  </defs>

  <!-- 背景 -->
  <rect width="512" height="512" rx="48" fill="#ffffff"/>

  <!-- 外层扫描环 -->
  <g transform="translate(256,256)">
    <ellipse rx="180" ry="120" fill="none" stroke="url(#g1)" stroke-width="28" stroke-linecap="round" filter="url(#s)"/>
    <ellipse rx="120" ry="85" fill="none" stroke="#e6f7fa" stroke-width="10"/>
  </g>

  <!-- 中央 "氢原子" 模型: 两个轨道 + 核心质子球 -->
  <g transform="translate(256,256)">
    <!-- 第一个椭圆轨道 -->
    <ellipse rx="75" ry="40" fill="none" stroke="#083a55" stroke-width="4"
             transform="rotate(45)"/>
    <!-- 第二个椭圆轨道 -->
    <ellipse rx="75" ry="40" fill="none" stroke="#083a55" stroke-width="4"
             transform="rotate(135)"/>
    <!-- 核心球体 -->
    <circle r="25" fill="url(#g1)" stroke="#0b6b8a" stroke-width="4"/>
  </g>

  <!-- 斜向上箭头表示磁矩 -->
  <g transform="translate(290,210)" fill="none" stroke="#0b6b8a" stroke-width="8" stroke-linecap="round" stroke-linejoin="round">
    <path d="M -20 25 L 25 -30" />
    <path d="M 40 -50 L 10 -32 L 30 -15 Z" fill="#0b6b8a" stroke="none"/>
  </g>

  <!-- 小装饰: 向外发散的线 -->
  <g transform="translate(256,256)" stroke="#79d0e4" stroke-width="3" stroke-linecap="round" opacity="0.8">
    <path d="M 180 0 L 220 0"/>
    <path d="M -180 0 L -220 0"/>
    <path d="M 0 120 L 0 160"/>
    <path d="M 0 -120 L 0 -160"/>
  </g>

  <!-- 标题文字：BlochVue Simulator -->
  <g transform="translate(256,256)">
    <text x="0" y="-180"
          font-family="Inter, Arial, Helvetica, sans-serif"
          font-weight="600"
          font-size="36"
          fill="#083a55"
          text-anchor="middle">
      BlochVue
    </text>
    <text x="0" y="189"
          font-family="Inter, Arial, Helvetica, sans-serif"
          font-weight="400"
          font-size="28"
          fill="#0b6b8a"
          text-anchor="middle">
      Simulator
    </text>
  </g>
</svg>
