<!-- 保存为 icon.svg -->
<svg xmlns="http://www.w3.org/2000/svg" width="512" height="512" viewBox="0 0 512 512" role="img" aria-labelledby="titleDesc">
  <title id="titleDesc">Magnetic Resonance - Vue Bloch Icon</title>
  <defs>
    <linearGradient id="g1" x1="0" x2="1" y1="0" y2="1">
      <stop offset="0" stop-color="#1e88e5"/>
      <stop offset="1" stop-color="#0fb9d1"/>
    </linearGradient>
    <filter id="s" x="-20%" y="-20%" width="140%" height="140%">
      <feDropShadow dx="0" dy="6" stdDeviation="10" flood-color="#000" flood-opacity="0.12"/>
    </filter>
  </defs>

  <!-- 背景圆（便于小图标时边角一致） -->
  <rect width="512" height="512" rx="48" fill="#ffffff"/>

  <!-- 外层扫描环（模拟 MRI 隧道截面） -->
  <g transform="translate(256,256)">
    <ellipse rx="180" ry="120" fill="none" stroke="url(#g1)" stroke-width="28" stroke-linecap="round" filter="url(#s)"/>
    <!-- 内层椭圆轮廓 -->
    <ellipse rx="120" ry="85" fill="none" stroke="#e6f7fa" stroke-width="10"/>
  </g>

  <!-- 中央样本：圆球（表示被成像对象）-->
  <g transform="translate(256,256)">
    <circle r="46" fill="#ffffff" stroke="#0b6b8a" stroke-width="6"/>
    <circle r="30" fill="url(#g1)" opacity="0.95"/>
  </g>

  <!-- 进动箭头（弧线+箭头） -->
  <g transform="translate(256,256)" fill="none" stroke="#083a55" stroke-width="10" stroke-linecap="round" stroke-linejoin="round">
    <!-- 弧 -->
    <path d="M 110 -20
             A 140 140 0 0 1 -40 110"
          stroke="#083a55" fill="none" stroke-width="12" opacity="0.95"/>
    <!-- 箭头头 -->
    <path d="M -40 110 L -24 86 L -54 94 Z" fill="#083a55" stroke="none"/>
  </g>

  <!-- 小装饰：向外发散的细线代表梯度/波形 -->
  <g transform="translate(256,256)" stroke="#79d0e4" stroke-width="4" stroke-linecap="round" opacity="0.9">
    <path d="M 180 0 L 220 0" />
    <path d="M -180 0 L -220 0" />
    <path d="M 0 120 L 0 160" />
    <path d="M 0 -120 L 0 -160" />
  </g>

  <!-- 标识，方便识别 -->
  <g transform="translate(360,360)">
    <rect x="-34" y="-34" width="68" height="68" rx="10" fill="#ffffff" opacity="0.0"/>
    <text x="0" y="18" font-family="Inter, Arial, Helvetica, sans-serif" font-weight="700" font-size="36" fill="#083a55" text-anchor="middle">Bloch</text>
  </g>
</svg>
